<svg viewBox="0 0 159 56" fill="none" xmlns="http://www.w3.org/2000/svg">
<path d="M76.0891 20.6851C77.1502 20.114 78.365 19.8298 79.7306 19.8298C81.3194 19.8298 82.7574 20.2212 84.0418 21.004C85.3291 21.7869 86.3468 22.9002 87.0948 24.344C87.8428 25.7879 88.2197 27.4608 88.2197 29.3598C88.2197 31.2617 87.8457 32.9462 87.0948 34.4104C86.3439 35.8774 85.3262 37.011 84.0418 37.817C82.7545 38.623 81.3165 39.026 79.7306 39.026C78.365 39.026 77.1647 38.7448 76.1239 38.1881C75.083 37.6286 74.2393 36.9241 73.5899 36.0746V47.5847H68.8901V20.1343H73.5899V22.819C74.1929 21.9666 75.025 21.2563 76.0891 20.6851ZM82.7342 26.4576C82.2762 25.64 81.6702 25.0196 80.9222 24.5963C80.1713 24.173 79.3624 23.9584 78.4897 23.9584C77.6402 23.9584 76.84 24.1759 76.0891 24.6137C75.3382 25.0486 74.7351 25.6835 74.277 26.5098C73.8189 27.339 73.5899 28.3103 73.5899 29.4294C73.5899 30.5485 73.8189 31.5227 74.277 32.349C74.7351 33.1782 75.3382 33.8102 76.0891 34.2451C76.8371 34.68 77.6373 34.9003 78.4897 34.9003C79.3624 34.9003 80.1742 34.6771 80.9222 34.2277C81.6702 33.7812 82.2762 33.1434 82.7342 32.3142C83.1923 31.4879 83.4214 30.5021 83.4214 29.3598C83.4214 28.2407 83.1923 27.2752 82.7342 26.4576Z" fill="#F5F5F5"/>
<path d="M95.068 37.8343C93.6358 37.0399 92.5109 35.915 91.6962 34.4625C90.8786 33.0099 90.4727 31.3312 90.4727 29.4293C90.4727 27.5274 90.8931 25.8487 91.731 24.3961C92.5689 22.9436 93.717 21.8187 95.1695 21.0242C96.6221 20.2298 98.2457 19.8326 100.035 19.8326C101.823 19.8326 103.447 20.2298 104.9 21.0242C106.355 21.8187 107.5 22.9436 108.338 24.3961C109.176 25.8516 109.596 27.5274 109.596 29.4293C109.596 31.3312 109.164 33.0099 108.303 34.4625C107.442 35.9179 106.277 37.0399 104.813 37.8343C103.348 38.6287 101.707 39.0259 99.8954 39.0259C98.1094 39.0259 96.4974 38.6287 95.068 37.8343ZM102.299 34.3117C103.047 33.8971 103.647 33.2767 104.094 32.4504C104.54 31.6241 104.763 30.6151 104.763 29.4293C104.763 27.6636 104.299 26.3039 103.372 25.3529C102.444 24.4019 101.307 23.9264 99.9649 23.9264C98.6226 23.9264 97.4977 24.4019 96.5931 25.3529C95.6856 26.3039 95.2333 27.6636 95.2333 29.4293C95.2333 31.1979 95.674 32.5547 96.5583 33.5057C97.4426 34.4567 98.5559 34.9322 99.8983 34.9322C100.748 34.9322 101.548 34.7234 102.299 34.3117Z" fill="#F5F5F5"/>
<path d="M117.752 13.8893V38.7217H113.052V13.8893H117.752Z" fill="#F5F5F5"/>
<path d="M139.934 20.1312V38.7244H135.203V36.376C134.6 37.182 133.811 37.814 132.837 38.2721C131.863 38.7302 130.807 38.9592 129.665 38.9592C128.21 38.9592 126.925 38.6519 125.806 38.0372C124.687 37.4226 123.808 36.5151 123.171 35.3177C122.533 34.1203 122.214 32.6939 122.214 31.0384V20.1312H126.911V30.3657C126.911 31.8415 127.279 32.978 128.018 33.7724C128.758 34.5668 129.764 34.964 131.039 34.964C132.335 34.964 133.356 34.5668 134.092 33.7724C134.832 32.978 135.2 31.8415 135.2 30.3657V20.1312H139.934Z" fill="#F5F5F5"/>
<path d="M147.585 38.2025C146.376 37.6545 145.419 36.9094 144.715 35.97C144.01 35.0307 143.625 33.9898 143.558 32.8504H148.29C148.38 33.5665 148.73 34.158 149.348 34.6277C149.963 35.0973 150.728 35.3322 151.647 35.3322C152.543 35.3322 153.242 35.1524 153.743 34.7958C154.248 34.4392 154.497 33.9782 154.497 33.4187C154.497 32.8156 154.19 32.3604 153.575 32.0589C152.961 31.7574 151.981 31.4269 150.638 31.0702C149.249 30.7339 148.116 30.3889 147.232 30.0294C146.347 29.6728 145.588 29.1219 144.95 28.3855C144.312 27.6462 143.993 26.6517 143.993 25.3992C143.993 24.37 144.289 23.4306 144.883 22.5811C145.475 21.7316 146.327 21.059 147.434 20.5661C148.542 20.0732 149.844 19.8268 151.346 19.8268C153.561 19.8268 155.326 20.3806 156.648 21.4881C157.968 22.5956 158.695 24.0887 158.829 25.9675H154.332C154.265 25.2282 153.958 24.6425 153.41 24.2047C152.862 23.7698 152.128 23.5495 151.212 23.5495C150.363 23.5495 149.708 23.706 149.249 24.0192C148.791 24.3323 148.562 24.7701 148.562 25.3267C148.562 25.953 148.875 26.4285 149.502 26.7532C150.128 27.0779 151.102 27.4084 152.421 27.7447C153.764 28.0811 154.871 28.4261 155.744 28.7856C156.617 29.1451 157.37 29.6989 158.008 30.4469C158.646 31.1978 158.977 32.1865 159 33.4158C159 34.4885 158.704 35.4511 158.11 36.3006C157.515 37.15 156.666 37.8169 155.558 38.2982C154.451 38.7795 153.158 39.0201 151.682 39.0201C150.157 39.0259 148.794 38.7505 147.585 38.2025Z" fill="#F5F5F5"/>
<path d="M55.9592 28.0029C55.9592 30.0904 55.7302 32.1228 55.2982 34.0769C52.6047 46.2481 41.9875 55.4417 29.1292 55.9578C28.7494 55.9752 28.3638 55.981 27.9782 55.981C23.2813 55.981 18.8512 54.8213 14.9661 52.7773C13.9804 52.2583 13.0265 51.6814 12.1161 51.0522C11.2029 50.4231 10.3302 49.7388 9.49808 49.0082C8.5761 48.1993 7.70921 47.3295 6.90321 46.4047C5.45357 44.7434 4.19238 42.9081 3.16313 40.9337C2.879 40.3915 2.61227 39.8378 2.36293 39.2724C1.89034 38.2026 1.48734 37.0979 1.14813 35.9614C0.400108 33.439 0 30.7659 0 28C0 26.733 0.0840812 25.4863 0.246441 24.2657C0.49578 22.3927 0.930672 20.5807 1.53083 18.8469C1.76277 18.1772 2.01791 17.5161 2.29914 16.8696C4.81863 11.0652 9.24874 6.28138 14.7922 3.31251C14.9545 3.22553 15.1198 3.14145 15.2822 3.05737C15.3981 2.99939 15.5141 2.9385 15.6301 2.88341C19.3528 1.04816 23.5422 0.0189209 27.9724 0.0189209C28.271 0.0189209 28.5638 0.0218166 28.8566 0.0334138C38.9056 0.343638 47.618 5.95377 52.2974 14.1617C54.6313 18.2468 55.9592 22.9668 55.9592 28.0029Z" fill="#30B5ED"/>
<path d="M52.3062 14.1645C47.6267 5.95948 38.9143 0.349354 28.8654 0.0362303C28.5726 0.0246331 28.2768 0.0217285 27.9811 0.0217285C23.551 0.0217285 19.3586 1.05098 15.6388 2.88623C15.5229 2.94132 15.4069 3.0022 15.2909 3.06019C15.1286 3.14427 14.9633 3.22835 14.8009 3.31533C13.8297 3.8314 12.7511 4.19671 11.7016 4.70409C2.91675 10.9608 0.919137 14.8806 2.3079 16.8695C5.04483 20.7952 20.9561 17.2145 23.9047 9.27627C26.114 9.04722 27.8419 7.36853 29.4684 6.44656C30.0193 8.95154 24.5339 9.98659 25.0296 13.286C23.983 16.6231 28.3696 17.5711 30.2281 15.2865C31.5153 14.2775 30.6804 11.7784 32.0256 11.2884C36.4441 10.0591 33.4869 3.89809 29.8193 3.81401C45.5711 1.7845 52.4569 24.1032 38.175 31.0586C30.6398 33.7521 35.8904 30.876 38.8911 27.42C44.9854 22.9667 46.7366 2.38465 37.0646 15.4431C36.0846 18.9193 32.0546 18.1481 30.2426 20.3545C28.4363 24.9788 18.7179 22.1317 18.5526 27.4722C22.4145 29.2669 16.5985 28.9016 14.7313 29.3104C12.0118 33.7985 23.7481 30.7803 25.7689 29.9192C29.9555 31.1659 13.2991 36.9819 11.2986 36.8369C9.2372 38.1938 3.38643 35.4917 1.15688 35.9613C0.382768 36.1237 0.0435468 36.6717 0.455246 37.9068C0.72488 38.7244 1.49609 39.281 2.36008 39.2752H2.37457C3.33714 39.2694 4.32 39.252 5.28546 39.771C4.7346 40.2146 3.917 40.5625 3.17478 40.9336C1.72804 41.6642 0.559626 42.4876 2.21802 44.2852C3.21827 46.019 4.91145 46.5437 6.91486 46.4046C13.9195 45.9204 24.76 37.3472 23.4698 44.0069C16.6072 49.9446 12.1916 47.315 9.51263 49.0081C9.04294 49.3039 8.62835 49.7359 8.26014 50.365C7.91802 52.4844 11.3508 52.87 14.9807 52.7743C18.0684 52.6931 21.2924 52.2669 22.4493 52.2669C23.5423 52.2669 22.7885 52.6468 18.3178 54.0674C22.2434 55.2329 25.853 55.836 29.1437 55.9548C41.9992 55.4359 52.6193 46.2451 55.3127 34.0739C55.7476 32.1198 55.9738 30.0874 55.9738 27.9999C55.9593 22.9667 54.6314 18.2467 52.3062 14.1645ZM32.6954 49.9475C36.6703 47.3034 39.5783 43.3922 44.3447 42.0585C49.1575 39.7536 49.7751 33.8014 53.318 30.1744C52.8048 37.8633 41.8281 48.3036 32.6954 49.9475ZM33.9855 53.1599C34.1073 53.1889 34.1885 53.2585 34.2146 53.0961C34.1189 53.0556 34.0667 53.1135 33.9855 53.1599Z" fill="#F5F5F5"/>
<path d="M11.0868 32.3782C6.36384 32.642 9.95606 27.2406 12.4466 28.5424C14.1571 29.7079 13.3105 32.6043 11.0868 32.3782Z" fill="#F5F5F5"/>
</svg>
