<svg viewBox="0 0 124 124" fill="none" xmlns="http://www.w3.org/2000/svg">
<path d="M123.968 61.6478C123.968 66.2465 123.46 70.7238 122.503 75.0287C116.537 101.842 93.0161 122.095 64.5306 123.232C63.6892 123.27 62.835 123.283 61.9807 123.283C51.5757 123.283 41.7615 120.728 33.1549 116.225C30.9711 115.082 28.858 113.811 26.8412 112.425C24.818 111.039 22.8847 109.532 21.0413 107.922C18.9989 106.14 17.0784 104.224 15.2929 102.186C12.0814 98.5267 9.28748 94.4837 7.00736 90.1341C6.37792 88.9397 5.78702 87.7198 5.23466 86.4743C4.18773 84.1175 3.29495 81.684 2.54347 79.1803C0.886371 73.6236 0 67.7347 0 61.6414C0 58.8503 0.186267 56.1039 0.545948 53.4149C1.09832 49.2889 2.06174 45.297 3.39128 41.4775C3.90511 40.0021 4.47034 38.5459 5.09335 37.1216C10.6748 24.3347 20.489 13.796 32.7695 7.25568C33.1292 7.06407 33.4953 6.87884 33.855 6.69362C34.1119 6.56588 34.3688 6.43175 34.6257 6.31039C42.8727 2.26739 52.1537 0 61.9679 0C62.6294 0 63.2782 0.00637926 63.9269 0.0319275C86.1885 0.715342 105.489 13.0743 115.856 31.156C121.026 40.1554 123.968 50.5535 123.968 61.6478Z" fill="#30B5ED"/>
<path d="M115.875 31.1623C105.508 13.0869 86.2077 0.727974 63.946 0.0381726C63.2973 0.0126243 62.6422 0.00622559 61.9871 0.00622559C52.1729 0.00622559 42.8854 2.27363 34.6449 6.31664C34.388 6.43799 34.1311 6.57212 33.8742 6.69986C33.5145 6.88509 33.1484 7.07032 32.7887 7.26193C30.637 8.39882 28.2477 9.2036 25.9226 10.3213C6.46132 24.1046 2.03597 32.7399 5.11252 37.1214C11.1757 45.7695 46.4244 37.8815 52.9565 20.3937C57.8507 19.8891 61.6788 16.191 65.282 14.1599C66.5023 19.6784 54.3503 21.9585 55.4486 29.227C53.1299 36.5785 62.8477 38.6671 66.9648 33.6341C69.8165 31.4114 67.9668 25.9057 70.947 24.8263C80.7354 22.1182 74.1841 8.54573 66.0592 8.3605C100.955 3.88957 116.209 53.0571 84.5699 68.3796C67.8768 74.3132 79.5087 67.9772 86.1563 60.3639C99.6572 50.5534 103.537 5.21168 82.1099 33.979C79.939 41.637 71.0112 39.9381 66.9969 44.7986C62.9954 54.986 41.466 48.7139 41.0999 60.4788C49.6552 64.4324 36.7709 63.6277 32.6345 64.5283C26.6099 74.4154 52.6097 67.7665 57.0864 65.8695C66.361 68.616 29.4616 81.4284 25.0298 81.109C20.4632 84.0982 7.50183 78.1455 2.56264 79.1802C0.847735 79.5378 0.0962501 80.745 1.0083 83.4658C1.60563 85.267 3.31411 86.4933 5.22813 86.4806H5.26024C7.39263 86.4678 9.56999 86.4295 11.7088 87.5728C10.4885 88.55 8.67721 89.3164 7.03296 90.1339C3.82794 91.7435 1.23953 93.5574 4.91342 97.5174C7.12931 101.337 10.8803 102.493 15.3185 102.186C30.8361 101.12 54.8512 82.2332 51.9931 96.9042C36.7901 109.985 27.0081 104.192 21.0733 107.922C20.0328 108.573 19.1144 109.525 18.2987 110.911C17.5408 115.58 25.1455 116.429 33.1869 116.219C40.0273 116.04 47.1695 115.101 49.7322 115.101C52.1536 115.101 50.4837 115.938 40.5796 119.067C49.2762 121.635 57.2727 122.963 64.5626 123.225C93.0417 122.082 116.569 101.835 122.535 75.0222C123.499 70.7173 124 66.24 124 61.6413C123.968 50.5534 121.026 40.1552 115.875 31.1623ZM72.4307 109.991C81.2364 104.166 87.6786 95.5502 98.2378 92.6121C108.9 87.5344 110.268 74.4218 118.117 66.4316C116.98 83.37 92.6627 106.37 72.4307 109.991ZM75.2888 117.068C75.5586 117.132 75.7384 117.285 75.7962 116.928C75.5843 116.838 75.4687 116.966 75.2888 117.068Z" fill="#F5F5F5"/>
<path d="M24.5612 71.2865C14.0983 71.8677 22.0563 59.9686 27.5735 62.8364C31.363 65.4039 29.4875 71.7846 24.5612 71.2865Z" fill="#F5F5F5"/>
</svg>
